<?xml version="1.0" standalone="no"?>
<!DOCTYPE svg PUBLIC "-//W3C//DTD SVG 20010904//EN"
 "http://www.w3.org/TR/2001/REC-SVG-20010904/DTD/svg10.dtd">
<svg version="1.0" xmlns="http://www.w3.org/2000/svg"
 width="512.000000pt" height="512.000000pt" viewBox="0 0 512.000000 512.000000"
 preserveAspectRatio="xMidYMid meet">

<g transform="translate(0.000000,512.000000) scale(0.100000,-0.100000)"
fill="#000000" stroke="none">
<path d="M679 3202 c-76 -40 -114 -103 -113 -186 1 -59 12 -85 293 -675 161
-337 304 -632 318 -655 65 -103 190 -194 318 -232 65 -19 248 -25 265 -8 9 9
-408 921 -459 1004 -40 67 -35 80 150 397 149 256 170 297 164 323 -13 61 -9
60 -466 60 l-417 0 -53 -28z"/>
<path d="M3519 3208 c35 -91 219 -525 243 -577 26 -54 29 -68 21 -96 -6 -17
-138 -250 -293 -515 -192 -328 -283 -493 -283 -513 0 -16 9 -38 22 -50 l22
-22 567 0 c532 0 569 1 604 19 85 42 135 127 126 213 -4 36 -80 205 -298 663
-161 338 -306 635 -323 659 -85 124 -223 209 -379 236 -36 6 -37 5 -29 -17z"/>
</g>
</svg>
